{
  "accessors": [
    {
      "bufferView": 1,
      "componentType": 5126,
      "count": 51092,
      "max": [
        72.410263061523438,
        205.39358520507812,
        174.96514892578125
      ],
      "min": [
        -72.399261474609375,
        0,
        -172.57980346679688
      ],
      "type": "VEC3"
    },
    {
      "bufferView": 1,
      "byteOffset": 613104,
      "componentType": 5126,
      "count": 51092,
      "max": [
        0.99999988079071045,
        0.99998611211776733,
        0.99999874830245972
      ],
      "min": [
        -0.99999946355819702,
        -1,
        -0.99993735551834106
      ],
      "type": "VEC3"
    },
    {
      "bufferView": 0,
      "componentType": 5125,
      "count": 300123,
      "max": [
        51091
      ],
      "min": [
        0
      ],
      "type": "SCALAR"
    }
  ],
  "asset": {
    "extras": {
      "author": "Ubros (https://sketchfab.com/ubros27)",
      "license": "CC-BY-4.0 (http://creativecommons.org/licenses/by/4.0/)",
      "source": "https://sketchfab.com/3d-models/sphinx-b0a0d2e885a144519cf89f940f4ee34d",
      "title": "sphinx"
    },
    "generator": "Sketchfab-6.33.0",
    "version": "2.0"
  },
  "bufferViews": [
    {
      "buffer": 0,
      "byteLength": 1200492,
      "byteOffset": 0,
      "name": "floatBufferViews",
      "target": 34963
    },
    {
      "buffer": 0,
      "byteLength": 1226208,
      "byteOffset": 1200492,
      "byteStride": 12,
      "name": "floatBufferViews",
      "target": 34962
    }
  ],
  "buffers": [
    {
      "byteLength": 2426700,
      "uri": "scene.bin"
    }
  ],
  "materials": [
    {
      "doubleSided": true,
      "name": "Scene_-_Root",
      "pbrMetallicRoughness": {
        "baseColorFactor": [
          0.56915454546935929,
          0.48450235920687262,
          0.26534009381920703,
          1
        ],
        "metallicFactor": 0.27320678324639042,
        "roughnessFactor": 0.33649792248689681
      }
    }
  ],
  "meshes": [
    {
      "name": "sphinx_t__0",
      "primitives": [
        {
          "attributes": {
            "NORMAL": 1,
            "POSITION": 0
          },
          "indices": 2,
          "material": 0,
          "mode": 4
        }
      ]
    }
  ],
  "nodes": [
    {
      "children": [
        1
      ],
      "name": "RootNode (gltf orientation matrix)",
      "rotation": [
        -0.70710678118654746,
        -0,
        -0,
        0.70710678118654757
      ]
    },
    {
      "children": [
        2
      ],
      "name": "RootNode (model correction matrix)"
    },
    {
      "children": [
        3
      ],
      "matrix": [
        1,
        0,
        0,
        0,
        0,
        0,
        1,
        0,
        0,
        -1,
        0,
        0,
        0,
        0,
        0,
        1
      ],
      "name": "d80754bbbffc4f4babdb9a30d0ac62ad.fbx"
    },
    {
      "children": [
        4
      ],
      "name": "RootNode"
    },
    {
      "children": [
        5
      ],
      "matrix": [
        1,
        0,
        0,
        0,
        0,
        1,
        0,
        0,
        0,
        0,
        1,
        0,
        0,
        2.0371530055999756,
        0,
        1
      ],
      "name": "sphinx_t"
    },
    {
      "mesh": 0,
      "name": "sphinx_t__0"
    }
  ],
  "scene": 0,
  "scenes": [
    {
      "name": "OSG_Scene",
      "nodes": [
        0
      ]
    }
  ]
}

